IKResults
version=1
nRows=9
nColumns=42
inDegrees=yes

Units are S.I. units (second, meters, Newtons, ...)
Angles are in degrees.

endheader
time	pelvis_tilt	pelvis_list	pelvis_rotation	pelvis_tx	pelvis_ty	pelvis_tz	hip_flexion_r	hip_adduction_r	hip_rotation_r	knee_angle_r	knee_adduction_r	knee_angle_r_beta	ankle_angle_r	subtalar_angle_r	mtp_angle_r	hip_flexion_l	hip_adduction_l	hip_rotation_l	knee_angle_l	knee_adduction_l	knee_angle_l_beta	ankle_angle_l	subtalar_angle_l	mtp_angle_l	lumbar_extension	lumbar_bending	lumbar_rotation	arm_flex_r	arm_add_r	arm_rot_r	elbow_flex_r	pro_sup_r	wrist_flex_r	wrist_dev_r	arm_flex_l	arm_add_l	arm_rot_l	elbow_flex_l	pro_sup_l	wrist_flex_l	wrist_dev_l
     45.72700000	      5.66689283	      0.34909482	     -2.20947044	      0.86639943	      0.96352862	     -0.07460547	     19.61853730	    -13.53749195	     -0.12359141	     74.93589905	      6.47602164	      1.30787817	     -2.39807001	     -9.50683043	     12.40706953	      4.16578895	      1.15548420	     -4.53260976	     19.86013899	      5.09547410	      0.34662482	     10.02368221	     -7.20852099	     -1.13335762	    -26.52906122	     -0.68567501	     -4.50123603	    -28.00975673	    -16.66985824	     21.26294993	    128.38615605	     87.83699357	      0.00000000	      0.00000000	      1.52504190	    -18.34817149	     41.55735318	    140.84891593	     87.89434278	      0.00000000	      0.00000000
     45.73300000	      5.64228941	      0.30414461	     -2.19202361	      0.86573297	      0.96403918	     -0.07533209	     20.44188433	    -13.44787674	     -0.23786095	     74.46982203	      6.47602164	      1.29974359	     -2.11802102	     -9.50965726	     12.38916662	      3.67719005	      1.19157379	     -4.46211819	     19.69377347	      5.09547410	      0.34372119	     10.19725330	     -7.17724372	     -1.15513087	    -26.54575526	     -0.55791093	     -4.74695758	    -28.16577870	    -16.63395712	     21.16534453	    128.41862666	     87.82254732	      0.00000000	      0.00000000	      2.08612540	    -18.44245847	     41.51230775	    141.08743270	     87.97257845	      0.00000000	      0.00000000
     45.74000000	      5.60807856	      0.14664575	     -2.09309919	      0.86552940	      0.96453207	     -0.07590376	     21.08929514	    -13.22458511	     -0.49509788	     73.85538534	      6.47602164	      1.28901964	     -1.47873730	     -9.49915696	     12.38258592	      3.05249982	      1.10344164	     -4.23356005	     19.24895395	      5.09547410	      0.33595762	     10.39278422	     -7.13097331	     -1.13975171	    -26.51780912	     -0.30975320	     -4.79805412	    -28.55750172	    -16.42406736	     20.79908450	    128.46479583	     87.88742856	      0.00000000	      0.00000000	      2.60279521	    -18.57473995	     41.86551839	    141.67694866	     87.93391058	      0.00000000	      0.00000000
     45.74700000	      5.96396100	      0.00642657	     -1.73340736	      0.86512988	      0.96555109	     -0.07649860	     21.13473143	    -13.13371058	     -1.13414566	     73.00417038	      6.47602164	      1.27416314	     -0.86000592	     -9.49675476	     12.80393050	      2.06367927	      1.00544071	     -3.90772134	     18.89733762	      5.09547410	      0.32982076	     10.61498036	     -6.92381230	     -1.08919420	    -26.93412088	     -0.02592488	     -4.90384046	    -28.98539911	    -16.03189700	     20.19754245	    128.68125030	     87.83050254	      0.00000000	      0.00000000	      3.51478117	    -18.80801552	     42.41083169	    142.00527669	     87.86698390	      0.00000000	      0.00000000
     45.75300000	      6.23287757	     -0.16722291	     -1.95395817	      0.86473387	      0.96642203	     -0.07694102	     21.46454430	    -12.84076883	     -1.22822967	     72.07933923	      6.47602164	      1.25802179	     -0.33878368	     -9.49421744	     13.06137938	      1.06520613	      0.88297288	     -4.15971456	     18.42697825	      5.09547410	      0.32161144	     10.85782816	     -6.71654266	     -1.03843056	    -27.27559839	      0.14848844	     -4.71025006	    -29.20754412	    -15.98151987	     19.92147851	    128.86605780	     87.81790550	      0.00000000	      0.00000000	      4.12423526	    -18.77541282	     42.61369073	    142.33755112	     87.90286588	      0.00000000	      0.00000000
     45.76000000	      6.24137877	     -0.26255906	     -1.95615684	      0.86434406	      0.96671403	     -0.07744596	     22.03249033	    -12.68827446	     -1.45700863	     71.12165007	      6.47602164	      1.24130696	      0.05830240	     -9.48742734	     13.06858589	      0.48741029	      0.80863149	     -4.31944703	     18.19459849	      5.09547410	      0.31755565	     11.14101820	     -6.38508775	     -1.08604234	    -27.30867937	      0.29429103	     -4.74305110	    -29.43757774	    -15.90617404	     19.74049503	    128.94681942	     87.81315877	      0.00000000	      0.00000000	      4.63139247	    -18.80037304	     42.79420138	    142.74643649	     87.92164848	      0.00000000	      0.00000000
     45.76700000	      6.12929708	     -0.19515149	     -2.00761879	      0.86331317	      0.96659697	     -0.07769798	     22.84973347	    -12.69192896	     -1.68658122	     70.20419552	      6.47602164	      1.22529436	      0.35999481	     -9.49459587	     13.01301739	      0.13369285	      0.92635709	     -4.35920216	     18.10523829	      5.09547410	      0.31599602	     11.35834204	     -6.29244633	     -1.12501062	    -27.25246515	      0.22808297	     -4.89005277	    -29.46500155	    -15.91555095	     19.68966289	    129.02009565	     87.71347213	      0.00000000	      0.00000000	      5.21639395	    -18.88536257	     42.65744497	    142.92919250	     87.94395147	      0.00000000	      0.00000000
     45.77300000	      6.61094359	     -0.65800745	     -1.98555857	      0.86311847	      0.96788664	     -0.07812519	     22.53932895	    -12.06463832	     -2.09989034	     68.60130754	      6.47602164	      1.19731869	      0.94521970	     -9.49318762	     13.29950098	     -1.19477081	      0.47865446	     -4.30081501	     17.46758284	      5.09547410	      0.30486683	     11.74091170	     -5.88081678	     -0.94860508	    -27.86734793	      0.76403923	     -4.52007815	    -29.87042199	    -15.67615402	     19.28134552	    129.28293091	     87.85749323	      0.00000000	      0.00000000	      5.88813010	    -18.80689207	     43.29619440	    143.40198931	     87.92415778	      0.00000000	      0.00000000
     45.78000000	      6.45863027	     -0.52049073	     -1.79988568	      0.86290142	      0.96772082	     -0.07830568	     23.09221534	    -12.17965335	     -2.65156998	     67.37731697	      6.47602164	      1.17595602	      1.53266904	     -9.47269878	     13.29187152	     -1.59138601	      0.62942779	     -4.12742596	     17.18588749	      5.09547410	      0.29995032	     11.93938753	     -5.63097867	     -0.96137417	    -27.67355093	      0.67278876	     -4.77643928	    -30.08794022	    -15.48207254	     19.24566335	    129.29958215	     87.78748909	      0.00000000	      0.00000000	      6.29945968	    -18.89781186	     43.45941626	    143.72417065	     87.94048959	      0.00000000	      0.00000000
